<?xml version="1.0" encoding="UTF-8" standalone="no"?>
<svg
   xmlns:dc="http://purl.org/dc/elements/1.1/"
   xmlns:cc="http://creativecommons.org/ns#"
   xmlns:rdf="http://www.w3.org/1999/02/22-rdf-syntax-ns#"
   xmlns:svg="http://www.w3.org/2000/svg"
   xmlns="http://www.w3.org/2000/svg"
   xmlns:sodipodi="http://sodipodi.sourceforge.net/DTD/sodipodi-0.dtd"
   xmlns:inkscape="http://www.inkscape.org/namespaces/inkscape"
   width="11.2in"
   height="3.2in"
   viewBox="0 0 1008 288.00001"
   id="svg2"
   version="1.1"
   inkscape:version="1.0.1 (3bc2e813f5, 2020-09-07)"
   sodipodi:docname="atlogo_rust.svg"
   inkscape:export-filename="C:\Users\tmatteson\Dropbox\graphics\bumpersticker.png"
   inkscape:export-xdpi="90.199997"
   inkscape:export-ydpi="90.199997">
  <defs
     id="defs4">
    <filter
       style="color-interpolation-filters:sRGB;"
       inkscape:label="Invert"
       id="filter3409">
      <feColorMatrix
         values="1 0 0 0 0 0 1 0 0 0 0 0 1 0 0 -0.21 -0.72 -0.07 2 0 "
         result="fbSourceGraphic"
         id="feColorMatrix3411" />
      <feColorMatrix
         result="fbSourceGraphicAlpha"
         in="fbSourceGraphic"
         values="0 0 0 -1 0 0 0 0 -1 0 0 0 0 -1 0 0 0 0 1 0"
         id="feColorMatrix3417" />
      <feColorMatrix
         id="feColorMatrix3419"
         values="1 0 0 0 0 0 1 0 0 0 0 0 1 0 0 -0.21 -0.72 -0.07 1 0 "
         result="fbSourceGraphic"
         in="fbSourceGraphic" />
      <feColorMatrix
         result="fbSourceGraphicAlpha"
         in="fbSourceGraphic"
         values="0 0 0 -1 0 0 0 0 -1 0 0 0 0 -1 0 0 0 0 1 0"
         id="feColorMatrix3425" />
      <feColorMatrix
         id="feColorMatrix3427"
         type="hueRotate"
         values="180"
         result="color1"
         in="fbSourceGraphic" />
      <feColorMatrix
         id="feColorMatrix3429"
         values="1 0 0 0 0 0 1 0 0 0 0 0 1 0 0 -0.21 -0.72 -0.07 1 0 "
         result="fbSourceGraphic" />
      <feColorMatrix
         result="fbSourceGraphicAlpha"
         in="fbSourceGraphic"
         values="0 0 0 -1 0 0 0 0 -1 0 0 0 0 -1 0 0 0 0 1 0"
         id="feColorMatrix3437" />
      <feColorMatrix
         id="feColorMatrix3439"
         type="hueRotate"
         values="180"
         result="color1"
         in="fbSourceGraphic" />
      <feColorMatrix
         id="feColorMatrix3441"
         values="1 0 0 0 0 0 1 0 0 0 0 0 1 0 0 -0.21 -0.72 -0.07 1 0 "
         result="fbSourceGraphic" />
      <feColorMatrix
         result="fbSourceGraphicAlpha"
         in="fbSourceGraphic"
         values="0 0 0 -1 0 0 0 0 -1 0 0 0 0 -1 0 0 0 0 1 0"
         id="feColorMatrix3449" />
      <feColorMatrix
         id="feColorMatrix3451"
         type="hueRotate"
         values="180"
         result="color1"
         in="fbSourceGraphic" />
      <feColorMatrix
         id="feColorMatrix3453"
         values="1 0 0 0 0 0 0 1 0 0 0 1 0 0 0 -0.21 -0.72 -0.07 1 0 "
         result="color2" />
    </filter>
    <filter
       style="color-interpolation-filters:sRGB;"
       inkscape:label="Invert"
       id="filter3413">
      <feColorMatrix
         values="1 0 0 0 0 0 1 0 0 0 0 0 1 0 0 -0.21 -0.72 -0.07 2 0 "
         result="fbSourceGraphic"
         id="feColorMatrix3415" />
      <feColorMatrix
         result="fbSourceGraphicAlpha"
         in="fbSourceGraphic"
         values="0 0 0 -1 0 0 0 0 -1 0 0 0 0 -1 0 0 0 0 1 0"
         id="feColorMatrix3421" />
      <feColorMatrix
         id="feColorMatrix3423"
         values="1 0 0 0 0 0 1 0 0 0 0 0 1 0 0 -0.21 -0.72 -0.07 1 0 "
         result="fbSourceGraphic"
         in="fbSourceGraphic" />
      <feColorMatrix
         result="fbSourceGraphicAlpha"
         in="fbSourceGraphic"
         values="0 0 0 -1 0 0 0 0 -1 0 0 0 0 -1 0 0 0 0 1 0"
         id="feColorMatrix3431" />
      <feColorMatrix
         id="feColorMatrix3433"
         type="hueRotate"
         values="180"
         result="color1"
         in="fbSourceGraphic" />
      <feColorMatrix
         id="feColorMatrix3435"
         values="1 0 0 0 0 0 1 0 0 0 0 0 1 0 0 -0.21 -0.72 -0.07 1 0 "
         result="fbSourceGraphic" />
      <feColorMatrix
         result="fbSourceGraphicAlpha"
         in="fbSourceGraphic"
         values="0 0 0 -1 0 0 0 0 -1 0 0 0 0 -1 0 0 0 0 1 0"
         id="feColorMatrix3443" />
      <feColorMatrix
         id="feColorMatrix3445"
         type="hueRotate"
         values="180"
         result="color1"
         in="fbSourceGraphic" />
      <feColorMatrix
         id="feColorMatrix3447"
         values="1 0 0 0 0 0 1 0 0 0 0 0 1 0 0 -0.21 -0.72 -0.07 1 0 "
         result="fbSourceGraphic" />
      <feColorMatrix
         result="fbSourceGraphicAlpha"
         in="fbSourceGraphic"
         values="0 0 0 -1 0 0 0 0 -1 0 0 0 0 -1 0 0 0 0 1 0"
         id="feColorMatrix3455" />
      <feColorMatrix
         id="feColorMatrix3457"
         type="hueRotate"
         values="180"
         result="color1"
         in="fbSourceGraphic" />
      <feColorMatrix
         id="feColorMatrix3459"
         values="1 0 0 0 0 0 0 1 0 0 0 1 0 0 0 -0.21 -0.72 -0.07 1 0 "
         result="color2" />
    </filter>
  </defs>
  <sodipodi:namedview
     id="base"
     pagecolor="#ffffff"
     bordercolor="#666666"
     borderopacity="1.0"
     inkscape:pageopacity="0.0"
     inkscape:pageshadow="2"
     inkscape:zoom="0.59372255"
     inkscape:cx="609.56789"
     inkscape:cy="334.98357"
     inkscape:document-units="px"
     inkscape:current-layer="layer1"
     showgrid="false"
     units="in"
     inkscape:window-width="1920"
     inkscape:window-height="1017"
     inkscape:window-x="-8"
     inkscape:window-y="-8"
     inkscape:window-maximized="1"
     inkscape:document-rotation="0">
    <sodipodi:guide
       position="9.5,326.60122"
       orientation="399.03806,0"
       id="guide3344"
       inkscape:locked="false" />
    <sodipodi:guide
       position="999.5,378.70492"
       orientation="465.12076,0"
       id="guide3346"
       inkscape:locked="false" />
    <sodipodi:guide
       position="-38.124655,279.50001"
       orientation="0,1122.1357"
       id="guide3348"
       inkscape:locked="false" />
    <sodipodi:guide
       position="-54.645339,9.4999503"
       orientation="0,1143.7396"
       id="guide3350"
       inkscape:locked="false" />
  </sodipodi:namedview>
  <metadata
     id="metadata7">
    <rdf:RDF>
      <cc:Work
         rdf:about="">
        <dc:format>image/svg+xml</dc:format>
        <dc:type
           rdf:resource="http://purl.org/dc/dcmitype/StillImage" />
        <dc:title />
      </cc:Work>
    </rdf:RDF>
  </metadata>
  <g
     inkscape:label="Layer 1"
     inkscape:groupmode="layer"
     id="layer1"
     transform="translate(0,-764.36215)">
    <g
       transform="matrix(2.2568104,0,0,2.2568104,-156.27857,577.7913)"
       style="font-style:normal;font-weight:normal;font-size:40px;line-height:125%;font-family:sans-serif;letter-spacing:0px;word-spacing:0px;fill:#9d6335;fill-opacity:1;stroke:none;stroke-width:1px;stroke-linecap:butt;stroke-linejoin:miter;stroke-opacity:1"
       id="flowRoot3422">
      <path
         d="m 107.02,125.35547 -13.52,32 6.32,0 1.32,-3.24 15.8,0 1.32,3.24 6.36,0 -13.52,-32 -4.08,0 z m 4.56,15.4 -5,0 2.52,-6.16 2.48,6.16 z m 3.24,8.04 -11.52,0 1.12,-2.72 9.32,0 1.08,2.72 z"
         style="font-style:normal;font-variant:normal;font-weight:normal;font-stretch:normal;font-size:40px;line-height:125%;font-family:Morden;-inkscape-font-specification:'Morden, Normal';text-align:start;letter-spacing:17.5px;writing-mode:lr-tb;text-anchor:start;fill:#9d6335;fill-opacity:1"
         id="path3435" />
      <path
         d="m 146.15625,164.55547 0,3.16 19.36,0 0,0.04 5.32,0 0,-22.64 c 0,-6.8 -5.52,-12.32 -12.32,-12.32 -6.84,0 -12.36,5.52 -12.36,12.32 0,6.24 4.6,11.36 10.6,12.24 l -10.6,7.2 z m 5.32,-19.44 c 0,-3.84 3.16,-7 7.04,-7 3.84,0 7,3.16 7,7 0,3.88 -3.16,7.04 -7,7.04 -3.88,0 -7.04,-3.16 -7.04,-7.04 z m 14.04,17.32 -6.84,0 6.84,-4.64 0,4.64 z"
         style="font-style:normal;font-variant:normal;font-weight:normal;font-stretch:normal;font-size:40px;line-height:125%;font-family:Morden;-inkscape-font-specification:'Morden, Normal';text-align:start;letter-spacing:17.5px;writing-mode:lr-tb;text-anchor:start;fill:#9d6335;fill-opacity:1"
         id="path3437" />
      <path
         d="m 197.64812,132.67547 -5.32,0 0,24.68 5.32,0 0,-12.36 c 0,-3.84 3.16,-7 7.04001,-7 l 0,-5.32 c -2.64001,0 -5.04001,0.8 -7.04001,2.2 l 0,-2.2 z"
         style="font-style:normal;font-variant:normal;font-weight:normal;font-stretch:normal;font-size:40px;line-height:125%;font-family:Morden;-inkscape-font-specification:'Morden, Normal';text-align:start;letter-spacing:17.5px;writing-mode:lr-tb;text-anchor:start;fill:#9d6335;fill-opacity:1"
         id="path3439" />
      <path
         d="m 231.47625,127.39547 c 0,-1.44 -1.2,-2.64 -2.68,-2.64 -1.44,0 -2.64,1.2 -2.64,2.64 0,1.48 1.2,2.68 2.64,2.68 1.48,0 2.68,-1.2 2.68,-2.68 z m 0,5.28 0,24.68 -5.32,0 0,-24.68 5.32,0 z"
         style="font-style:normal;font-variant:normal;font-weight:normal;font-stretch:normal;font-size:40px;line-height:125%;font-family:Morden;-inkscape-font-specification:'Morden, Normal';text-align:start;letter-spacing:17.5px;writing-mode:lr-tb;text-anchor:start;fill:#9d6335;fill-opacity:1"
         id="path3441" />
      <path
         d="m 266.29813,157.35547 0,-25.74 8.01,0 0,-6.39 -22.45501,0 0,6.39 8.01001,0 0,25.74 6.435,0 z"
         style="font-style:normal;font-variant:normal;font-weight:900;font-stretch:normal;font-size:45px;line-height:125%;font-family:Lovelo;-inkscape-font-specification:'Lovelo, Heavy';text-align:start;letter-spacing:17.5px;writing-mode:lr-tb;text-anchor:start;fill:#9d6335;fill-opacity:1"
         id="path3443" />
      <path
         d="m 300.3825,125.35547 -5.32,0 0,32 5.32,0 0,-12.36 c 0,-3.84 3.16,-7 7.04,-7 3.84,0 7,3.16 7,7 l 0,12.36 5.32,0 0,-12.36 c 0,-6.8 -5.52,-12.32 -12.32,-12.32 -2.64,0 -5.04,0.8 -7.04,2.2 l 0,-9.52 z"
         style="font-style:normal;font-variant:normal;font-weight:normal;font-stretch:normal;font-size:40px;line-height:125%;font-family:Morden;-inkscape-font-specification:'Morden, Normal';text-align:start;letter-spacing:17.5px;writing-mode:lr-tb;text-anchor:start;fill:#9d6335;fill-opacity:1"
         id="path3445" />
      <path
         d="m 365.91437,146.79547 0,-1.8 c 0,-6.8 -5.51999,-12.32 -12.31999,-12.32 -6.84001,0 -12.36001,5.52 -12.36001,12.36 0,6.8 5.52,12.32 12.36001,12.32 3.31999,0 6.31999,-1.32 8.56,-3.48 l -3.72001,-3.8 c -1.24,1.2 -2.96,1.96 -4.83999,1.96 -3.28001,0 -6.04001,-2.24 -6.80001,-5.24 l 19.12,0 z m -18.4,-5.32 c 1.20001,-2.08 3.48,-3.48 6.08001,-3.48 2.56,0 4.83999,1.4 6.03999,3.48 l -12.12,0 z"
         style="font-style:normal;font-variant:normal;font-weight:normal;font-stretch:normal;font-size:40px;line-height:125%;font-family:Morden;-inkscape-font-specification:'Morden, Normal';text-align:start;letter-spacing:17.5px;writing-mode:lr-tb;text-anchor:start;fill:#9d6335;fill-opacity:1"
         id="path3447" />
      <path
         d="m 399.76625,132.67547 c -6.84,0 -12.36,5.52 -12.36,12.32 0,6.84 5.52,12.36 12.36,12.36 6.8,0 12.32,-5.52 12.32,-12.36 0,-6.8 -5.52,-12.32 -12.32,-12.32 z m 0,5.32 c 3.84,0 7,3.16 7,7 0,3.88 -3.16,7.04 -7,7.04 -3.88,0 -7.04,-3.16 -7.04,-7.04 0,-3.84 3.16,-7 7.04,-7 z"
         style="font-style:normal;font-variant:normal;font-weight:normal;font-stretch:normal;font-size:40px;line-height:125%;font-family:Morden;-inkscape-font-specification:'Morden, Normal';text-align:start;letter-spacing:17.5px;writing-mode:lr-tb;text-anchor:start;fill:#9d6335;fill-opacity:1"
         id="path3449" />
      <path
         d="m 438.89812,132.67547 -5.32,0 0,24.68 5.32,0 0,-12.36 c 0,-3.84 3.16001,-7 7.04001,-7 l 0,-5.32 c -2.64,0 -5.04001,0.8 -7.04001,2.2 l 0,-2.2 z"
         style="font-style:normal;font-variant:normal;font-weight:normal;font-stretch:normal;font-size:40px;line-height:125%;font-family:Morden;-inkscape-font-specification:'Morden, Normal';text-align:start;letter-spacing:17.5px;writing-mode:lr-tb;text-anchor:start;fill:#9d6335;fill-opacity:1"
         id="path3451" />
      <path
         d="m 492.08625,132.67547 -5.32,0 0,12.68 c 0,3.88 -3.16,7.04 -7,7.04 -3.88,0 -7.04,-3.16 -7.04,-7.04 l 0,-12.68 -5.32,0 0,12.68 c 0,5.8 3.96,10.64 9.36,11.96 l -9.36,6.32 0,3.2 24.68,0 0,-5.28 -12.16,0 12.16,-8.16 0,-20.72 z"
         style="font-style:normal;font-variant:normal;font-weight:normal;font-stretch:normal;font-size:40px;line-height:125%;font-family:Morden;-inkscape-font-specification:'Morden, Normal';text-align:start;letter-spacing:17.5px;writing-mode:lr-tb;text-anchor:start;fill:#9d6335;fill-opacity:1"
         id="path3453" />
    </g>
  </g>
</svg>
